# xmcd
#
# Track frame offsets:
#	182
#	14887
#	27310
#	41542
#	56567
#	70080
#	81502
#	93255
#	104305
#	116437
#	129435
#	142850
#	156942
#	168417
#	182097
#	193795
#	207265
#	218307
#	234900
#	246490
#
# Disc length: 3450 seconds
#
# Revision: 0
# Processed by: cddbd v1.4PL0 Copyright (c) Steve Scherf et al.
# Submitted via: dBpowerAMP V4.0
#
DISCID=140d7814
DTITLE=Glen Campbell - Gentle On My Mind
DYEAR=1900
DGENRE=Country
TTITLE0=Rhinestone Cowboy
TTITLE1=By The Time I Get To Phoenix
TTITLE2=Country Boy (You Got Your Feet In L.A.)
TTITLE3=Houston (I'm Comin' To See You)
TTITLE4=Southern Nights
TTITLE5=Everything A Man Could Ever Need
TTITLE6=Dreams Of The Everyday Housewife
TTITLE7=It's Only Make Believe
TTITLE8=Galveston
TTITLE9=Sunflower
TTITLE10=Gentle On My Mind
TTITLE11=Wichita Lineman
TTITLE12=Dream Baby
TTITLE13=Honey, Come Back
TTITLE14=All I Have To Do Is Dream (With Bobbie Gentry)
TTITLE15=Where's The Playground Susie
TTITLE16=Try A Little Kindness  
TTITLE17=Oh Happy Day
TTITLE18=Hey, Little One
TTITLE19=I Wanna Live
EXTD=Disc produced by SM (Special Markets) and EMI Music Canada\nDistributed by EMI Music Canada Registered User
EXTT0=
EXTT1=
EXTT2=
EXTT3=
EXTT4=
EXTT5=
EXTT6=
EXTT7=
EXTT8=
EXTT9=
EXTT10=
EXTT11=
EXTT12=
EXTT13=
EXTT14=
EXTT15=
EXTT16=
EXTT17=
EXTT18=
EXTT19=
PLAYORDER=
